<svg viewBox="0 0 48 55" fill="none" xmlns="http://www.w3.org/2000/svg">
<path d="M15.2857 37.5C20.6113 37.5 24.9285 33.1827 24.9285 27.8571C24.9285 22.5315 20.6113 18.2142 15.2857 18.2142C9.96008 18.2142 5.64282 22.5315 5.64282 27.8571C5.64282 33.1827 9.96008 37.5 15.2857 37.5Z" stroke="url(#paint0_linear_115_2)" stroke-width="3.57143"/>
<path d="M0.00261579 30.1429C0.000871931 30.2617 0 30.3807 0 30.5C0 43.7154 10.7132 54.4286 23.9286 54.4286C37.1439 54.4286 47.8571 43.7154 47.8571 30.5C47.8571 30.3807 47.8563 30.2617 47.8545 30.1429H0.00261579Z" fill="url(#paint1_linear_115_2)"/>
<path d="M35.6429 23.9285C38.0098 23.9285 39.9286 22.0097 39.9286 19.6428C39.9286 17.2758 38.0098 15.3571 35.6429 15.3571C33.276 15.3571 31.3572 17.2758 31.3572 19.6428C31.3572 22.0097 33.276 23.9285 35.6429 23.9285Z" stroke="#EAA427" stroke-width="2.14286"/>
<path d="M27.7857 9.64283C30.1526 9.64283 32.0714 7.72405 32.0714 5.35712C32.0714 2.99019 30.1526 1.07141 27.7857 1.07141C25.4188 1.07141 23.5 2.99019 23.5 5.35712C23.5 7.72405 25.4188 9.64283 27.7857 9.64283Z" stroke="#EA7727" stroke-width="2.14286"/>
<defs>
<linearGradient id="paint0_linear_115_2" x1="7.42859" y1="19.6428" x2="22.4286" y2="37.1428" gradientUnits="userSpaceOnUse">
<stop stop-color="#EA6D27"/>
<stop offset="1" stop-color="#EAA827"/>
</linearGradient>
<linearGradient id="paint1_linear_115_2" x1="6.42857" y1="30.1429" x2="35" y2="45.8571" gradientUnits="userSpaceOnUse">
<stop stop-color="#FF9400"/>
<stop offset="1" stop-color="#EA6D27"/>
</linearGradient>
</defs>
</svg>
